<svg width="44" height="49" viewBox="0 0 44 49" fill="none" xmlns="http://www.w3.org/2000/svg">
<rect x="0.776123" y="0.459351" width="42.5595" height="48.4895" rx="8" fill="#FFFAF1"/>
<path d="M30.6327 31.3244C30.0627 30.7454 29.5637 30.0817 29.149 29.3511C28.6964 28.3426 28.4251 27.2413 28.351 26.1118V22.7848C28.3549 21.0107 27.7901 19.2959 26.7626 17.9628C25.7351 16.6297 24.3157 15.7699 22.771 15.5451V14.6763C22.771 14.4378 22.6879 14.2092 22.5399 14.0406C22.3919 13.8719 22.1912 13.7772 21.9819 13.7772C21.7726 13.7772 21.5719 13.8719 21.4239 14.0406C21.2759 14.2092 21.1928 14.4378 21.1928 14.6763V15.5585C19.6619 15.7996 18.2597 16.6645 17.2457 17.9932C16.2317 19.3218 15.6746 21.0241 15.6777 22.7848V26.1118C15.6037 27.2413 15.3324 28.3426 14.8798 29.3511C14.4724 30.08 13.9814 30.7437 13.4197 31.3244C13.3567 31.3875 13.3061 31.4652 13.2715 31.5523C13.2368 31.6394 13.2189 31.7339 13.2188 31.8295V32.7454C13.2188 32.924 13.281 33.0953 13.3919 33.2216C13.5027 33.3479 13.6531 33.4189 13.8099 33.4189H30.2426C30.3993 33.4189 30.5497 33.3479 30.6605 33.2216C30.7714 33.0953 30.8337 32.924 30.8337 32.7454V31.8295C30.8336 31.7339 30.8156 31.6394 30.7809 31.5523C30.7463 31.4652 30.6957 31.3875 30.6327 31.3244ZM14.4482 32.0719C14.9982 31.4666 15.4824 30.7883 15.8905 30.0515C16.4607 28.8335 16.7934 27.4897 16.8659 26.1118V22.7848C16.8424 21.9956 16.9586 21.209 17.2076 20.4719C17.4565 19.7349 17.833 19.0624 18.3148 18.4946C18.7966 17.9269 19.3737 17.4753 20.0118 17.167C20.65 16.8586 21.336 16.6997 22.0292 16.6997C22.7223 16.6997 23.4084 16.8586 24.0465 17.167C24.6846 17.4753 25.2618 17.9269 25.7435 18.4946C26.2253 19.0624 26.6019 19.7349 26.8508 20.4719C27.0997 21.209 27.2159 21.9956 27.1925 22.7848V26.1118C27.2649 27.4897 27.5976 28.8335 28.1678 30.0515C28.5759 30.7883 29.0601 31.4666 29.6101 32.0719H14.4482Z" fill="#FFA412"/>
<path d="M22.0555 35.6681C22.4278 35.6583 22.7852 35.4988 23.0643 35.2178C23.3433 34.9368 23.5262 34.5524 23.5805 34.1326H20.4713C20.5272 34.5638 20.7186 34.9572 21.01 35.2397C21.3014 35.5221 21.6729 35.6744 22.0555 35.6681Z" fill="#FFA412"/>
<path d="M34.7646 13.2552C36.3969 13.2552 37.7202 11.7476 37.7202 9.88784C37.7202 8.02811 36.3969 6.52051 34.7646 6.52051C33.1323 6.52051 31.8091 8.02811 31.8091 9.88784C31.8091 11.7476 33.1323 13.2552 34.7646 13.2552Z" fill="#EB5757"/>
</svg>
