<svg width="193" height="50" viewBox="0 0 193 50" fill="none" xmlns="http://www.w3.org/2000/svg">
<path d="M31.1939 14.48C30.8899 13.92 30.4499 13.496 29.8739 13.208C29.3139 12.904 28.6499 12.752 27.8819 12.752C26.5539 12.752 25.4899 13.192 24.6899 14.072C23.8899 14.936 23.4899 16.096 23.4899 17.552C23.4899 19.104 23.9059 20.32 24.7379 21.2C25.5859 22.064 26.7459 22.496 28.2179 22.496C29.2259 22.496 30.0739 22.24 30.7619 21.728C31.4659 21.216 31.9779 20.48 32.2979 19.52H27.0899V16.496H36.0179V20.312C35.7139 21.336 35.1939 22.288 34.4579 23.168C33.7379 24.048 32.8179 24.76 31.6979 25.304C30.5779 25.848 29.3139 26.12 27.9059 26.12C26.2419 26.12 24.7539 25.76 23.4419 25.04C22.1459 24.304 21.1299 23.288 20.3939 21.992C19.6739 20.696 19.3139 19.216 19.3139 17.552C19.3139 15.888 19.6739 14.408 20.3939 13.112C21.1299 11.8 22.1459 10.784 23.4419 10.064C24.7379 9.328 26.2179 8.96 27.8819 8.96C29.8979 8.96 31.5939 9.448 32.9699 10.424C34.3619 11.4 35.2819 12.752 35.7299 14.48H31.1939ZM44.4621 26.192C43.1501 26.192 41.9661 25.912 40.9101 25.352C39.8701 24.792 39.0461 23.992 38.4381 22.952C37.8461 21.912 37.5501 20.696 37.5501 19.304C37.5501 17.928 37.8541 16.72 38.4621 15.68C39.0701 14.624 39.9021 13.816 40.9581 13.256C42.0141 12.696 43.1981 12.416 44.5101 12.416C45.8221 12.416 47.0061 12.696 48.0621 13.256C49.1181 13.816 49.9501 14.624 50.5581 15.68C51.1661 16.72 51.4701 17.928 51.4701 19.304C51.4701 20.68 51.1581 21.896 50.5341 22.952C49.9261 23.992 49.0861 24.792 48.0141 25.352C46.9581 25.912 45.7741 26.192 44.4621 26.192ZM44.4621 22.64C45.2461 22.64 45.9101 22.352 46.4541 21.776C47.0141 21.2 47.2941 20.376 47.2941 19.304C47.2941 18.232 47.0221 17.408 46.4781 16.832C45.9501 16.256 45.2941 15.968 44.5101 15.968C43.7101 15.968 43.0461 16.256 42.5181 16.832C41.9901 17.392 41.7261 18.216 41.7261 19.304C41.7261 20.376 41.9821 21.2 42.4941 21.776C43.0221 22.352 43.6781 22.64 44.4621 22.64ZM69.0833 17.36C70.0593 17.568 70.8433 18.056 71.4353 18.824C72.0273 19.576 72.3233 20.44 72.3233 21.416C72.3233 22.824 71.8273 23.944 70.8353 24.776C69.8593 25.592 68.4913 26 66.7313 26H58.8833V9.152H66.4673C68.1793 9.152 69.5153 9.544 70.4753 10.328C71.4513 11.112 71.9393 12.176 71.9393 13.52C71.9393 14.512 71.6753 15.336 71.1473 15.992C70.6353 16.648 69.9473 17.104 69.0833 17.36ZM62.9873 15.968H65.6753C66.3473 15.968 66.8593 15.824 67.2113 15.536C67.5793 15.232 67.7633 14.792 67.7633 14.216C67.7633 13.64 67.5793 13.2 67.2113 12.896C66.8593 12.592 66.3473 12.44 65.6753 12.44H62.9873V15.968ZM66.0113 22.688C66.6993 22.688 67.2273 22.536 67.5953 22.232C67.9793 21.912 68.1713 21.456 68.1713 20.864C68.1713 20.272 67.9713 19.808 67.5713 19.472C67.1873 19.136 66.6513 18.968 65.9633 18.968H62.9873V22.688H66.0113ZM88.0026 12.608V26H83.8986V24.176C83.4826 24.768 82.9146 25.248 82.1946 25.616C81.4906 25.968 80.7066 26.144 79.8426 26.144C78.8186 26.144 77.9146 25.92 77.1306 25.472C76.3466 25.008 75.7386 24.344 75.3066 23.48C74.8746 22.616 74.6586 21.6 74.6586 20.432V12.608H78.7386V19.88C78.7386 20.776 78.9706 21.472 79.4346 21.968C79.8986 22.464 80.5226 22.712 81.3066 22.712C82.1066 22.712 82.7386 22.464 83.2026 21.968C83.6666 21.472 83.8986 20.776 83.8986 19.88V12.608H88.0026ZM96.4735 26.192C95.3055 26.192 94.2655 25.992 93.3535 25.592C92.4415 25.192 91.7215 24.648 91.1935 23.96C90.6655 23.256 90.3695 22.472 90.3055 21.608H94.3615C94.4095 22.072 94.6255 22.448 95.0095 22.736C95.3935 23.024 95.8655 23.168 96.4255 23.168C96.9375 23.168 97.3295 23.072 97.6015 22.88C97.8895 22.672 98.0335 22.408 98.0335 22.088C98.0335 21.704 97.8335 21.424 97.4335 21.248C97.0335 21.056 96.3855 20.848 95.4895 20.624C94.5295 20.4 93.7295 20.168 93.0895 19.928C92.4495 19.672 91.8975 19.28 91.4335 18.752C90.9695 18.208 90.7375 17.48 90.7375 16.568C90.7375 15.8 90.9455 15.104 91.3615 14.48C91.7935 13.84 92.4175 13.336 93.2335 12.968C94.0655 12.6 95.0495 12.416 96.1855 12.416C97.8655 12.416 99.1855 12.832 100.145 13.664C101.121 14.496 101.681 15.6 101.825 16.976H98.0335C97.9695 16.512 97.7615 16.144 97.4095 15.872C97.0735 15.6 96.6255 15.464 96.0655 15.464C95.5855 15.464 95.2175 15.56 94.9615 15.752C94.7055 15.928 94.5775 16.176 94.5775 16.496C94.5775 16.88 94.7775 17.168 95.1775 17.36C95.5935 17.552 96.2335 17.744 97.0975 17.936C98.0895 18.192 98.8975 18.448 99.5215 18.704C100.145 18.944 100.689 19.344 101.153 19.904C101.633 20.448 101.881 21.184 101.897 22.112C101.897 22.896 101.673 23.6 101.225 24.224C100.793 24.832 100.161 25.312 99.3295 25.664C98.5135 26.016 97.5615 26.192 96.4735 26.192ZM106.547 11.216C105.827 11.216 105.235 11.008 104.771 10.592C104.323 10.16 104.099 9.632 104.099 9.008C104.099 8.368 104.323 7.84 104.771 7.424C105.235 6.992 105.827 6.776 106.547 6.776C107.251 6.776 107.827 6.992 108.275 7.424C108.739 7.84 108.971 8.368 108.971 9.008C108.971 9.632 108.739 10.16 108.275 10.592C107.827 11.008 107.251 11.216 106.547 11.216ZM108.587 12.608V26H104.483V12.608H108.587ZM119.796 12.464C121.364 12.464 122.612 12.976 123.54 14C124.484 15.008 124.956 16.4 124.956 18.176V26H120.876V18.728C120.876 17.832 120.644 17.136 120.18 16.64C119.716 16.144 119.092 15.896 118.308 15.896C117.524 15.896 116.9 16.144 116.436 16.64C115.972 17.136 115.74 17.832 115.74 18.728V26H111.636V12.608H115.74V14.384C116.156 13.792 116.716 13.328 117.42 12.992C118.124 12.64 118.916 12.464 119.796 12.464ZM140.507 19.088C140.507 19.472 140.483 19.872 140.435 20.288H131.147C131.211 21.12 131.475 21.76 131.939 22.208C132.419 22.64 133.003 22.856 133.691 22.856C134.715 22.856 135.427 22.424 135.827 21.56H140.195C139.971 22.44 139.563 23.232 138.971 23.936C138.395 24.64 137.667 25.192 136.787 25.592C135.907 25.992 134.923 26.192 133.835 26.192C132.523 26.192 131.355 25.912 130.331 25.352C129.307 24.792 128.507 23.992 127.931 22.952C127.355 21.912 127.067 20.696 127.067 19.304C127.067 17.912 127.347 16.696 127.907 15.656C128.483 14.616 129.283 13.816 130.307 13.256C131.331 12.696 132.507 12.416 133.835 12.416C135.131 12.416 136.283 12.688 137.291 13.232C138.299 13.776 139.083 14.552 139.643 15.56C140.219 16.568 140.507 17.744 140.507 19.088ZM136.307 18.008C136.307 17.304 136.067 16.744 135.587 16.328C135.107 15.912 134.507 15.704 133.787 15.704C133.099 15.704 132.515 15.904 132.035 16.304C131.571 16.704 131.283 17.272 131.171 18.008H136.307ZM148.195 26.192C147.027 26.192 145.987 25.992 145.075 25.592C144.163 25.192 143.443 24.648 142.915 23.96C142.387 23.256 142.091 22.472 142.027 21.608H146.083C146.131 22.072 146.347 22.448 146.731 22.736C147.115 23.024 147.587 23.168 148.147 23.168C148.659 23.168 149.051 23.072 149.323 22.88C149.611 22.672 149.755 22.408 149.755 22.088C149.755 21.704 149.555 21.424 149.155 21.248C148.755 21.056 148.107 20.848 147.211 20.624C146.251 20.4 145.451 20.168 144.811 19.928C144.171 19.672 143.619 19.28 143.155 18.752C142.691 18.208 142.459 17.48 142.459 16.568C142.459 15.8 142.667 15.104 143.083 14.48C143.515 13.84 144.139 13.336 144.955 12.968C145.787 12.6 146.771 12.416 147.907 12.416C149.587 12.416 150.907 12.832 151.867 13.664C152.843 14.496 153.403 15.6 153.547 16.976H149.755C149.691 16.512 149.483 16.144 149.131 15.872C148.795 15.6 148.347 15.464 147.787 15.464C147.307 15.464 146.939 15.56 146.683 15.752C146.427 15.928 146.299 16.176 146.299 16.496C146.299 16.88 146.499 17.168 146.899 17.36C147.315 17.552 147.955 17.744 148.819 17.936C149.811 18.192 150.619 18.448 151.243 18.704C151.867 18.944 152.411 19.344 152.875 19.904C153.355 20.448 153.603 21.184 153.619 22.112C153.619 22.896 153.395 23.6 152.947 24.224C152.515 24.832 151.883 25.312 151.051 25.664C150.235 26.016 149.283 26.192 148.195 26.192ZM161.653 26.192C160.485 26.192 159.445 25.992 158.533 25.592C157.621 25.192 156.901 24.648 156.373 23.96C155.845 23.256 155.549 22.472 155.485 21.608H159.541C159.589 22.072 159.805 22.448 160.189 22.736C160.573 23.024 161.045 23.168 161.605 23.168C162.117 23.168 162.509 23.072 162.781 22.88C163.069 22.672 163.213 22.408 163.213 22.088C163.213 21.704 163.013 21.424 162.613 21.248C162.213 21.056 161.565 20.848 160.669 20.624C159.709 20.4 158.909 20.168 158.269 19.928C157.629 19.672 157.077 19.28 156.613 18.752C156.149 18.208 155.917 17.48 155.917 16.568C155.917 15.8 156.125 15.104 156.541 14.48C156.973 13.84 157.597 13.336 158.413 12.968C159.245 12.6 160.229 12.416 161.365 12.416C163.045 12.416 164.365 12.832 165.325 13.664C166.301 14.496 166.861 15.6 167.005 16.976H163.213C163.149 16.512 162.941 16.144 162.589 15.872C162.253 15.6 161.805 15.464 161.245 15.464C160.765 15.464 160.397 15.56 160.141 15.752C159.885 15.928 159.757 16.176 159.757 16.496C159.757 16.88 159.957 17.168 160.357 17.36C160.773 17.552 161.413 17.744 162.277 17.936C163.269 18.192 164.077 18.448 164.701 18.704C165.325 18.944 165.869 19.344 166.333 19.904C166.813 20.448 167.061 21.184 167.077 22.112C167.077 22.896 166.853 23.6 166.405 24.224C165.973 24.832 165.341 25.312 164.509 25.664C163.693 26.016 162.741 26.192 161.653 26.192Z" fill="#1E1F4B"/>
<circle cx="176.5" cy="33.5" r="7.5" fill="#706FE5"/>
<path d="M34.7282 32.1161C34.7282 35.6388 33.7098 39.0824 31.8018 42.0114C29.8938 44.9405 27.1819 47.2234 24.009 48.5715C20.8362 49.9196 17.3448 50.2723 13.9765 49.585C10.6082 48.8978 7.5142 47.2014 5.08578 44.7105C2.65737 42.2195 1.00359 39.0459 0.333592 35.5909C-0.336406 32.1358 0.00746236 28.5546 1.32171 25.3C2.63596 22.0454 4.86157 19.2637 7.71708 17.3066C10.5726 15.3495 13.9298 14.3049 17.3641 14.3049V32.1161H34.7282Z" fill="#706FE5"/>
</svg>
